<?xml version="1.0" encoding="UTF-8" standalone="no"?>
<!DOCTYPE svg PUBLIC "-//W3C//DTD SVG 1.1//EN" "http://www.w3.org/Graphics/SVG/1.1/DTD/svg11.dtd">
<svg width="100%" height="100%" viewBox="0 0 560 560" version="1.1" xmlns="http://www.w3.org/2000/svg" xmlns:xlink="http://www.w3.org/1999/xlink" xml:space="preserve" xmlns:serif="http://www.serif.com/" style="fill-rule:evenodd;clip-rule:evenodd;stroke-linejoin:round;stroke-miterlimit:2;">
    <g transform="matrix(1,0,0,1,-70,-3)">
        <path d="M451.59,393.79C445.891,390.946 442.293,385.126 442.293,378.755L442.293,250.405L253.783,392.185C250.814,394.416 247.26,395.556 243.681,395.556C241.122,395.556 238.552,394.974 236.177,393.791C230.478,390.947 226.88,385.126 226.88,378.756L226.88,250.205L105.85,340.35L105.85,468.14C105.85,499.071 130.928,524.14 161.85,524.14L538.14,524.14C569.062,524.14 594.14,499.071 594.14,468.14L594.14,298.191L469.19,392.174C464.101,395.999 457.272,396.624 451.588,393.776L451.59,393.79ZM538.149,35.86L161.849,35.86C130.927,35.86 105.849,60.93 105.849,91.86L105.849,298.47L233.649,203.282C238.739,199.481 245.544,198.891 251.223,201.743C256.907,204.595 260.485,210.407 260.485,216.755L260.485,345.105L448.985,203.335C454.082,199.503 460.895,198.89 466.59,201.729C472.289,204.573 475.887,210.394 475.887,216.76L475.887,345.11L594.137,256.165L594.141,91.855C594.144,60.925 569.067,35.855 538.145,35.855L538.149,35.86Z" style="fill:white;fill-rule:nonzero;"/>
        <g id="u">
        </g>
        <g id="d">
        </g>
        <g id="c">
        </g>
        <g id="n">
        </g>
        <g id="b">
        </g>
        <g id="c1" serif:id="c">
        </g>
        <g id="e">
        </g>
        <g id="m">
        </g>
        <g id="l">
        </g>
        <g id="k">
        </g>
        <g id="t">
        </g>
        <g id="b1" serif:id="b">
        </g>
        <g id="j">
        </g>
        <g id="e1" serif:id="e">
        </g>
        <g id="s">
        </g>
        <g id="a">
        </g>
        <g id="i">
        </g>
        <g id="a1" serif:id="a">
        </g>
        <g id="h">
        </g>
        <g id="g">
        </g>
        <g id="f">
        </g>
        <g id="a2" serif:id="a">
        </g>
        <g id="r">
        </g>
        <g id="d1" serif:id="d">
        </g>
        <g id="a3" serif:id="a">
        </g>
        <g id="q">
        </g>
        <g id="b2" serif:id="b">
        </g>
        <g id="f1" serif:id="f">
        </g>
        <g id="c2" serif:id="c">
        </g>
        <g id="p">
        </g>
        <g id="a4" serif:id="a">
        </g>
        <g id="j1" serif:id="j">
        </g>
        <g id="h1" serif:id="h">
        </g>
        <g id="i1" serif:id="i">
        </g>
        <g id="d2" serif:id="d">
        </g>
        <g id="a5" serif:id="a">
        </g>
        <g id="o">
        </g>
        <g id="c3" serif:id="c">
        </g>
        <g id="g1" serif:id="g">
        </g>
        <g id="b3" serif:id="b">
        </g>
    </g>
</svg>
