<?xml version="1.0" encoding="UTF-8" standalone="no"?>
<!DOCTYPE svg PUBLIC "-//W3C//DTD SVG 1.1//EN" "http://www.w3.org/Graphics/SVG/1.1/DTD/svg11.dtd">
<svg width="100%" height="100%" viewBox="0 0 560 560" version="1.1" xmlns="http://www.w3.org/2000/svg" xmlns:xlink="http://www.w3.org/1999/xlink" xml:space="preserve" xmlns:serif="http://www.serif.com/" style="fill-rule:evenodd;clip-rule:evenodd;stroke-linejoin:round;stroke-miterlimit:2;">
    <g transform="matrix(1,0,0,1,-67,-2)">
        <path d="M140.94,228.01C137.749,228.01 126.608,226.451 112.885,243.162L105.85,251.506L105.85,468.156C105.85,499.086 130.928,524.156 161.85,524.156L538.14,524.156C569.062,524.156 594.14,499.086 594.14,468.156L594.14,334.886C578.785,351.351 563.96,359.788 549.98,359.788C549.324,359.788 548.675,359.76 548.054,359.745C547.445,359.76 546.785,359.788 546.179,359.788C508.398,359.788 474.62,298.683 468.199,286.433C455.449,261.945 429.844,228.003 414.965,228.003C414.758,228.003 414.473,228.015 414.231,228.042L412.797,228.093L412.219,228.081C396.848,228.081 370.672,261.999 357.746,286.479C351.289,298.881 316.574,361.674 277.934,359.737C277.278,359.753 276.664,359.78 276.051,359.78C238.106,359.78 204.453,298.667 198.078,286.409C185.32,261.936 159.683,227.995 144.84,227.995L140.938,227.999L140.94,228.01ZM538.15,35.85L161.85,35.85C130.928,35.85 105.85,60.92 105.85,91.85L105.85,216.24C118.662,205.041 131.061,199.666 142.854,200.26C181.416,198.205 216.249,261.115 222.749,273.576C235.507,298.053 261.108,331.982 275.948,331.982C276.19,331.982 276.436,331.97 276.682,331.955L277.952,331.849L279.139,331.943C279.425,331.97 279.628,331.982 279.874,331.982C294.804,331.982 320.39,298.052 333.159,273.564C339.655,261.31 373.804,200.283 412.237,200.283L412.569,200.283C451.331,197.674 486.378,261.072 492.874,273.564C505.671,298.052 531.229,331.982 546.112,331.982L550.034,331.982C556.866,331.982 570.362,328.802 587.858,304.154L594.158,295.24L594.158,91.85C594.147,60.916 569.068,35.846 538.146,35.846L538.15,35.85Z" style="fill:white;fill-rule:nonzero;"/>
        <g id="u">
        </g>
        <g id="d">
        </g>
        <g id="c">
        </g>
        <g id="n">
        </g>
        <g id="b">
        </g>
        <g id="c1" serif:id="c">
        </g>
        <g id="e">
        </g>
        <g id="m">
        </g>
        <g id="l">
        </g>
        <g id="k">
        </g>
        <g id="t">
        </g>
        <g id="b1" serif:id="b">
        </g>
        <g id="j">
        </g>
        <g id="e1" serif:id="e">
        </g>
        <g id="s">
        </g>
        <g id="a">
        </g>
        <g id="i">
        </g>
        <g id="a1" serif:id="a">
        </g>
        <g id="h">
        </g>
        <g id="g">
        </g>
        <g id="f">
        </g>
        <g id="a2" serif:id="a">
        </g>
        <g id="r">
        </g>
        <g id="d1" serif:id="d">
        </g>
        <g id="a3" serif:id="a">
        </g>
        <g id="q">
        </g>
        <g id="b2" serif:id="b">
        </g>
        <g id="f1" serif:id="f">
        </g>
        <g id="c2" serif:id="c">
        </g>
        <g id="p">
        </g>
        <g id="a4" serif:id="a">
        </g>
        <g id="j1" serif:id="j">
        </g>
        <g id="h1" serif:id="h">
        </g>
        <g id="i1" serif:id="i">
        </g>
        <g id="d2" serif:id="d">
        </g>
        <g id="a5" serif:id="a">
        </g>
        <g id="o">
        </g>
        <g id="c3" serif:id="c">
        </g>
        <g id="g1" serif:id="g">
        </g>
        <g id="b3" serif:id="b">
        </g>
    </g>
</svg>
