<?xml version="1.0" encoding="UTF-8" standalone="no"?>
<!DOCTYPE svg PUBLIC "-//W3C//DTD SVG 1.1//EN" "http://www.w3.org/Graphics/SVG/1.1/DTD/svg11.dtd">
<svg width="100%" height="100%" viewBox="0 0 560 560" version="1.1" xmlns="http://www.w3.org/2000/svg" xmlns:xlink="http://www.w3.org/1999/xlink" xml:space="preserve" xmlns:serif="http://www.serif.com/" style="fill-rule:evenodd;clip-rule:evenodd;stroke-linejoin:round;stroke-miterlimit:2;">
    <g transform="matrix(1,0,0,1,-66,-3)">
        <path d="M538.15,35.852L161.85,35.852C130.928,35.852 105.85,60.922 105.85,91.852L105.85,224.942L159.077,224.942L159.077,340.672L211.593,340.672L211.597,224.942L295.081,224.942L295.081,340.672L347.593,340.672L347.593,224.942L431.073,224.942L431.073,340.672L483.589,340.672L483.589,224.942L567.069,224.942L567.069,340.672L594.143,340.672L594.143,91.862C594.147,60.932 569.069,35.862 538.147,35.862L538.15,35.852ZM539.076,252.932L511.596,252.932L511.596,368.662L403.076,368.662L403.076,252.932L375.592,252.932L375.592,368.662L267.082,368.662L267.082,252.932L239.598,252.932L239.598,368.662L131.078,368.662L131.078,252.932L105.851,252.932L105.851,468.142C105.851,499.072 130.929,524.142 161.851,524.142L538.141,524.142C569.063,524.142 594.141,499.072 594.141,468.142L594.141,368.658L539.067,368.658L539.063,252.928L539.076,252.932Z" style="fill:white;fill-rule:nonzero;"/>
        <g id="u">
        </g>
        <g id="d">
        </g>
        <g id="c">
        </g>
        <g id="n">
        </g>
        <g id="b">
        </g>
        <g id="c1" serif:id="c">
        </g>
        <g id="e">
        </g>
        <g id="m">
        </g>
        <g id="l">
        </g>
        <g id="k">
        </g>
        <g id="t">
        </g>
        <g id="b1" serif:id="b">
        </g>
        <g id="j">
        </g>
        <g id="e1" serif:id="e">
        </g>
        <g id="s">
        </g>
        <g id="a">
        </g>
        <g id="i">
        </g>
        <g id="a1" serif:id="a">
        </g>
        <g id="h">
        </g>
        <g id="g">
        </g>
        <g id="f">
        </g>
        <g id="a2" serif:id="a">
        </g>
        <g id="r">
        </g>
        <g id="d1" serif:id="d">
        </g>
        <g id="a3" serif:id="a">
        </g>
        <g id="q">
        </g>
        <g id="b2" serif:id="b">
        </g>
        <g id="f1" serif:id="f">
        </g>
        <g id="c2" serif:id="c">
        </g>
        <g id="p">
        </g>
        <g id="a4" serif:id="a">
        </g>
        <g id="j1" serif:id="j">
        </g>
        <g id="h1" serif:id="h">
        </g>
        <g id="i1" serif:id="i">
        </g>
        <g id="d2" serif:id="d">
        </g>
        <g id="a5" serif:id="a">
        </g>
        <g id="o">
        </g>
        <g id="c3" serif:id="c">
        </g>
        <g id="g1" serif:id="g">
        </g>
        <g id="b3" serif:id="b">
        </g>
    </g>
</svg>
